<svg xmlns="http://www.w3.org/2000/svg" viewBox="0 0 256 256" role="img" aria-labelledby="title desc">
  <title id="title">RZD Tickets MCP</title>
  <desc id="desc">Abstract train ticket scanner eye with rails</desc>
  <defs>
    <linearGradient id="bg" x1="24" x2="232" y1="24" y2="232" gradientUnits="userSpaceOnUse">
      <stop stop-color="#111827"/>
      <stop offset="1" stop-color="#020617"/>
    </linearGradient>
    <linearGradient id="rail" x1="64" x2="192" y1="174" y2="174" gradientUnits="userSpaceOnUse">
      <stop stop-color="#38bdf8"/>
      <stop offset="1" stop-color="#ef4444"/>
    </linearGradient>
  </defs>
  <rect width="256" height="256" rx="56" fill="url(#bg)"/>
  <path d="M48 130c20-38 50-57 80-57s60 19 80 57c-20 38-50 57-80 57s-60-19-80-57Z" fill="#0f172a" stroke="#38bdf8" stroke-width="8"/>
  <circle cx="128" cy="130" r="34" fill="#111827" stroke="#e5e7eb" stroke-width="8"/>
  <path d="M103 123h50v35c0 8-7 15-15 15h-20c-8 0-15-7-15-15v-35Z" fill="#ef4444"/>
  <path d="M112 106h32l9 17h-50l9-17Z" fill="#38bdf8"/>
  <circle cx="118" cy="151" r="5" fill="#f8fafc"/>
  <circle cx="138" cy="151" r="5" fill="#f8fafc"/>
  <path d="M79 203h98M95 184l-25 36M161 184l25 36" stroke="url(#rail)" stroke-width="8" stroke-linecap="round"/>
  <path d="M70 66h33M153 66h33M55 92h24M177 92h24" stroke="#64748b" stroke-width="8" stroke-linecap="round"/>
</svg>
